# xmcd
#
# Track frame offsets:
#	150
#	18924
#	36522
#	55391
#	69994
#	86586
#	103553
#	118238
#	131635
#	145120
#	161427
#	178507
#	197400
#	215480
#	229859
#
# Disc length: 3291 seconds
#
# Revision: 1
# Processed by: cddbd v1.5.2PL0 Copyright (c) Steve Scherf et al.
# Submitted via: EasyCDDAExtractor 16.0.6.1
#
DISCID=d00cd90f
DTITLE=Various Artist - Ti amo The Ultimate treasures Cd1
DYEAR=2012
DGENRE=Acoustic
TTITLE0=Ti Amo
TTITLE1=Io Camminero
TTITLE2=Malinconia
TTITLE3=Se Bruciasse La Citta
TTITLE4=Dirtello, Non Dirtello
TTITLE5=Lontano Dagli
TTITLE6=Che M' E' 'Mparato
TTITLE7=Insieme A Te Non Ci Sto Piu'
TTITLE8=Un Uomo Che Vale
TTITLE9=L' ora Dell' amore
TTITLE10=No
TTITLE11=Luna
TTITLE12=Comprami
TTITLE13=Amore Amore
TTITLE14=Nostalgia Canaglia
EXTD=
EXTT0=
EXTT1=
EXTT2=
EXTT3=
EXTT4=
EXTT5=
EXTT6=
EXTT7=
EXTT8=
EXTT9=
EXTT10=
EXTT11=
EXTT12=
EXTT13=
EXTT14=
PLAYORDER=
